# xmcd CD database file
#
# Track frame offsets:
#	182
#	20427
#	39265
#	63032
#	77672
#	90412
#	103990
#	136380
#	165797
#
# Disc length: 2649 seconds
#
# Revision: 0
# Processed by: cddbd v1.5.1PL0 Copyright (c) Steve Scherf et al.
# Submitted via: CDex 1.51
#
DISCID=5d0a5709
DTITLE=Various Artist - Summer Suite
DYEAR=1983
DGENRE=New Age
TTITLE0=Summer Song
TTITLE1=Enchanted Forest
TTITLE2=Love To You
TTITLE3=Wildlife Friends
TTITLE4=Flight
TTITLE5=Summer Song Revisited
TTITLE6=Twilight Traveler
TTITLE7=Kaleidoscope
TTITLE8=Dawn
EXTD=YEAR: 1983
EXTT0=
EXTT1=
EXTT2=
EXTT3=
EXTT4=
EXTT5=
EXTT6=
EXTT7=
EXTT8=
PLAYORDER=
